<mxfile host="Electron" agent="Mozilla/5.0 (Windows NT 10.0; Win64; x64) AppleWebKit/537.36 (KHTML, like Gecko) draw.io/26.2.15 Chrome/134.0.6998.205 Electron/35.2.1 Safari/537.36" version="26.2.15">
  <diagram name="Page-1" id="W6zhBbKdxk98BNmSpVJT">
    <mxGraphModel dx="2118" dy="611" grid="1" gridSize="14" guides="1" tooltips="1" connect="1" arrows="1" fold="1" page="1" pageScale="1" pageWidth="850" pageHeight="1100" math="0" shadow="0">
      <root>
        <mxCell id="0" />
        <mxCell id="1" parent="0" />
        <mxCell id="V7xc9u7MWps00xmW803G-8" value="Customer" style="rounded=1;arcSize=10;whiteSpace=wrap;html=1;align=center;" parent="1" vertex="1">
          <mxGeometry x="-700" y="112" width="100" height="40" as="geometry" />
        </mxCell>
        <mxCell id="V7xc9u7MWps00xmW803G-9" value="" style="endArrow=none;html=1;rounded=0;" parent="1" edge="1">
          <mxGeometry width="50" height="50" relative="1" as="geometry">
            <mxPoint x="-616" y="112" as="sourcePoint" />
            <mxPoint x="-584.5695338177052" y="80.56953381770518" as="targetPoint" />
          </mxGeometry>
        </mxCell>
        <mxCell id="V7xc9u7MWps00xmW803G-11" value="CustomerID" style="ellipse;whiteSpace=wrap;html=1;align=center;fontStyle=4;" parent="1" vertex="1">
          <mxGeometry x="-630" y="42" width="100" height="40" as="geometry" />
        </mxCell>
        <mxCell id="V7xc9u7MWps00xmW803G-13" value="&lt;br&gt;&lt;div&gt;Name&lt;/div&gt;" style="ellipse;whiteSpace=wrap;html=1;align=center;" parent="1" vertex="1">
          <mxGeometry x="-770" y="42" width="100" height="40" as="geometry" />
        </mxCell>
        <mxCell id="V7xc9u7MWps00xmW803G-14" value="" style="endArrow=none;html=1;rounded=0;" parent="1" edge="1">
          <mxGeometry width="50" height="50" relative="1" as="geometry">
            <mxPoint x="1932" y="1408" as="sourcePoint" />
            <mxPoint x="1982" y="1358" as="targetPoint" />
          </mxGeometry>
        </mxCell>
        <mxCell id="V7xc9u7MWps00xmW803G-23" value="" style="endArrow=none;html=1;rounded=0;exitX=0.25;exitY=0;exitDx=0;exitDy=0;" parent="1" source="V7xc9u7MWps00xmW803G-8" edge="1">
          <mxGeometry width="50" height="50" relative="1" as="geometry">
            <mxPoint x="-686" y="98" as="sourcePoint" />
            <mxPoint x="-714" y="84" as="targetPoint" />
          </mxGeometry>
        </mxCell>
        <mxCell id="V7xc9u7MWps00xmW803G-25" value="P&lt;span style=&quot;background-color: transparent; color: light-dark(rgb(0, 0, 0), rgb(255, 255, 255));&quot;&gt;hone&lt;/span&gt;" style="ellipse;whiteSpace=wrap;html=1;align=center;" parent="1" vertex="1">
          <mxGeometry x="-850" y="112" width="100" height="40" as="geometry" />
        </mxCell>
        <mxCell id="V7xc9u7MWps00xmW803G-26" value="" style="endArrow=none;html=1;rounded=0;entryX=0;entryY=0.5;entryDx=0;entryDy=0;" parent="1" source="V7xc9u7MWps00xmW803G-25" target="V7xc9u7MWps00xmW803G-8" edge="1">
          <mxGeometry width="50" height="50" relative="1" as="geometry">
            <mxPoint x="-750" y="182" as="sourcePoint" />
            <mxPoint x="-679.2893218813452" y="132" as="targetPoint" />
          </mxGeometry>
        </mxCell>
        <mxCell id="V7xc9u7MWps00xmW803G-27" value="address" style="ellipse;whiteSpace=wrap;html=1;align=center;" parent="1" vertex="1">
          <mxGeometry x="-490" y="72" width="100" height="40" as="geometry" />
        </mxCell>
        <mxCell id="V7xc9u7MWps00xmW803G-28" value="" style="endArrow=none;html=1;rounded=0;entryX=0;entryY=0.5;entryDx=0;entryDy=0;exitX=1;exitY=0.25;exitDx=0;exitDy=0;" parent="1" source="V7xc9u7MWps00xmW803G-8" target="V7xc9u7MWps00xmW803G-27" edge="1">
          <mxGeometry width="50" height="50" relative="1" as="geometry">
            <mxPoint x="-588" y="134" as="sourcePoint" />
            <mxPoint x="-538" y="84" as="targetPoint" />
          </mxGeometry>
        </mxCell>
        <mxCell id="V7xc9u7MWps00xmW803G-29" value="JionDate" style="ellipse;whiteSpace=wrap;html=1;align=center;" parent="1" vertex="1">
          <mxGeometry x="-490" y="152" width="100" height="40" as="geometry" />
        </mxCell>
        <mxCell id="V7xc9u7MWps00xmW803G-30" value="" style="endArrow=none;html=1;rounded=0;entryX=0;entryY=0.5;entryDx=0;entryDy=0;" parent="1" target="V7xc9u7MWps00xmW803G-29" edge="1">
          <mxGeometry width="50" height="50" relative="1" as="geometry">
            <mxPoint x="-602" y="148" as="sourcePoint" />
            <mxPoint x="-552" y="98" as="targetPoint" />
          </mxGeometry>
        </mxCell>
        <mxCell id="V7xc9u7MWps00xmW803G-33" value="Transaction" style="rounded=1;arcSize=10;whiteSpace=wrap;html=1;align=center;" parent="1" vertex="1">
          <mxGeometry x="-700" y="406" width="100" height="40" as="geometry" />
        </mxCell>
        <mxCell id="V7xc9u7MWps00xmW803G-34" value="" style="endArrow=none;html=1;rounded=0;exitX=1;exitY=0.5;exitDx=0;exitDy=0;" parent="1" source="V7xc9u7MWps00xmW803G-33" edge="1">
          <mxGeometry width="50" height="50" relative="1" as="geometry">
            <mxPoint x="-588" y="420" as="sourcePoint" />
            <mxPoint x="-546" y="392" as="targetPoint" />
          </mxGeometry>
        </mxCell>
        <mxCell id="V7xc9u7MWps00xmW803G-38" style="edgeStyle=orthogonalEdgeStyle;rounded=0;orthogonalLoop=1;jettySize=auto;html=1;exitX=0.5;exitY=1;exitDx=0;exitDy=0;" parent="1" edge="1">
          <mxGeometry relative="1" as="geometry">
            <mxPoint x="-524" y="390" as="sourcePoint" />
            <mxPoint x="-524" y="390" as="targetPoint" />
          </mxGeometry>
        </mxCell>
        <mxCell id="V7xc9u7MWps00xmW803G-39" value="&lt;br&gt;&lt;div&gt;TransactionID&lt;/div&gt;&lt;div&gt;&lt;br&gt;&lt;/div&gt;" style="ellipse;whiteSpace=wrap;html=1;align=center;fontStyle=4;" parent="1" vertex="1">
          <mxGeometry x="-590" y="350" width="100" height="40" as="geometry" />
        </mxCell>
        <mxCell id="V7xc9u7MWps00xmW803G-41" value="" style="endArrow=none;html=1;rounded=0;entryX=0.958;entryY=0.73;entryDx=0;entryDy=0;entryPerimeter=0;exitX=0;exitY=0.25;exitDx=0;exitDy=0;" parent="1" source="V7xc9u7MWps00xmW803G-33" edge="1">
          <mxGeometry width="50" height="50" relative="1" as="geometry">
            <mxPoint x="-742" y="428" as="sourcePoint" />
            <mxPoint x="-754.2" y="390.88" as="targetPoint" />
          </mxGeometry>
        </mxCell>
        <mxCell id="V7xc9u7MWps00xmW803G-49" value="&lt;br&gt;&lt;div&gt;Type&lt;/div&gt;&lt;div&gt;&lt;br&gt;&lt;/div&gt;" style="ellipse;whiteSpace=wrap;html=1;align=center;" parent="1" vertex="1">
          <mxGeometry x="-826" y="434" width="100" height="40" as="geometry" />
        </mxCell>
        <mxCell id="V7xc9u7MWps00xmW803G-50" value="&lt;div&gt;&lt;br&gt;&lt;/div&gt;&lt;div&gt;&lt;br&gt;&lt;/div&gt;" style="endArrow=none;html=1;rounded=0;exitX=1;exitY=0.5;exitDx=0;exitDy=0;" parent="1" source="V7xc9u7MWps00xmW803G-49" edge="1">
          <mxGeometry width="50" height="50" relative="1" as="geometry">
            <mxPoint x="-742" y="498" as="sourcePoint" />
            <mxPoint x="-692" y="448" as="targetPoint" />
          </mxGeometry>
        </mxCell>
        <mxCell id="V7xc9u7MWps00xmW803G-51" value="&lt;br&gt;&lt;div&gt;Amount&lt;/div&gt;&lt;div&gt;&lt;br&gt;&lt;/div&gt;" style="ellipse;whiteSpace=wrap;html=1;align=center;" parent="1" vertex="1">
          <mxGeometry x="-742" y="490" width="100" height="40" as="geometry" />
        </mxCell>
        <mxCell id="V7xc9u7MWps00xmW803G-52" value="" style="endArrow=none;html=1;rounded=0;" parent="1" edge="1">
          <mxGeometry width="50" height="50" relative="1" as="geometry">
            <mxPoint x="-686" y="490" as="sourcePoint" />
            <mxPoint x="-644" y="448" as="targetPoint" />
          </mxGeometry>
        </mxCell>
        <mxCell id="V7xc9u7MWps00xmW803G-54" value="&lt;br&gt;&lt;div&gt;Date&lt;/div&gt;&lt;div&gt;&lt;br&gt;&lt;/div&gt;" style="ellipse;whiteSpace=wrap;html=1;align=center;" parent="1" vertex="1">
          <mxGeometry x="-590" y="476" width="100" height="40" as="geometry" />
        </mxCell>
        <mxCell id="V7xc9u7MWps00xmW803G-55" value="" style="endArrow=none;html=1;rounded=0;exitX=0.07;exitY=0.34;exitDx=0;exitDy=0;exitPerimeter=0;" parent="1" source="V7xc9u7MWps00xmW803G-54" target="V7xc9u7MWps00xmW803G-33" edge="1">
          <mxGeometry width="50" height="50" relative="1" as="geometry">
            <mxPoint x="-630" y="484" as="sourcePoint" />
            <mxPoint x="-580" y="434" as="targetPoint" />
          </mxGeometry>
        </mxCell>
        <mxCell id="V7xc9u7MWps00xmW803G-56" value="RelationShip" style="shape=rhombus;perimeter=rhombusPerimeter;whiteSpace=wrap;html=1;align=center;" parent="1" vertex="1">
          <mxGeometry x="-700" y="238" width="120" height="60" as="geometry" />
        </mxCell>
        <mxCell id="V7xc9u7MWps00xmW803G-63" value="" style="endArrow=none;html=1;rounded=0;entryX=0.5;entryY=0;entryDx=0;entryDy=0;" parent="1" target="V7xc9u7MWps00xmW803G-56" edge="1">
          <mxGeometry relative="1" as="geometry">
            <mxPoint x="-640" y="154" as="sourcePoint" />
            <mxPoint x="-512" y="168" as="targetPoint" />
          </mxGeometry>
        </mxCell>
        <mxCell id="V7xc9u7MWps00xmW803G-64" value="1" style="resizable=0;html=1;whiteSpace=wrap;align=right;verticalAlign=bottom;" parent="V7xc9u7MWps00xmW803G-63" connectable="0" vertex="1">
          <mxGeometry x="1" relative="1" as="geometry" />
        </mxCell>
        <mxCell id="V7xc9u7MWps00xmW803G-70" value="&lt;br&gt;&lt;div&gt;Employee&lt;/div&gt;&lt;div&gt;&lt;br&gt;&lt;/div&gt;" style="rounded=1;arcSize=10;whiteSpace=wrap;html=1;align=center;" parent="1" vertex="1">
          <mxGeometry x="-100" y="98" width="100" height="40" as="geometry" />
        </mxCell>
        <mxCell id="V7xc9u7MWps00xmW803G-72" value="" style="endArrow=none;html=1;rounded=0;exitX=1;exitY=0;exitDx=0;exitDy=0;" parent="1" source="V7xc9u7MWps00xmW803G-70" edge="1">
          <mxGeometry width="50" height="50" relative="1" as="geometry">
            <mxPoint y="84" as="sourcePoint" />
            <mxPoint x="56" y="70" as="targetPoint" />
          </mxGeometry>
        </mxCell>
        <mxCell id="V7xc9u7MWps00xmW803G-74" value="&lt;br&gt;&lt;div&gt;EmployeeID&lt;/div&gt;&lt;div&gt;&lt;br&gt;&lt;/div&gt;" style="ellipse;whiteSpace=wrap;html=1;align=center;fontStyle=4;" parent="1" vertex="1">
          <mxGeometry x="14" y="32" width="100" height="40" as="geometry" />
        </mxCell>
        <mxCell id="V7xc9u7MWps00xmW803G-75" value="" style="endArrow=none;html=1;rounded=0;exitX=0.5;exitY=0;exitDx=0;exitDy=0;" parent="1" source="V7xc9u7MWps00xmW803G-70" edge="1">
          <mxGeometry width="50" height="50" relative="1" as="geometry">
            <mxPoint x="-56" y="84" as="sourcePoint" />
            <mxPoint x="-84" y="56" as="targetPoint" />
          </mxGeometry>
        </mxCell>
        <mxCell id="V7xc9u7MWps00xmW803G-76" value="Name" style="ellipse;whiteSpace=wrap;html=1;align=center;" parent="1" vertex="1">
          <mxGeometry x="-140" y="14" width="100" height="40" as="geometry" />
        </mxCell>
        <mxCell id="V7xc9u7MWps00xmW803G-78" value="" style="endArrow=none;html=1;rounded=0;entryX=1;entryY=0.5;entryDx=0;entryDy=0;" parent="1" target="V7xc9u7MWps00xmW803G-70" edge="1">
          <mxGeometry width="50" height="50" relative="1" as="geometry">
            <mxPoint x="70" y="126" as="sourcePoint" />
            <mxPoint x="14" y="126" as="targetPoint" />
          </mxGeometry>
        </mxCell>
        <mxCell id="V7xc9u7MWps00xmW803G-80" value="Email" style="ellipse;whiteSpace=wrap;html=1;align=center;" parent="1" vertex="1">
          <mxGeometry x="70" y="112" width="100" height="40" as="geometry" />
        </mxCell>
        <mxCell id="V7xc9u7MWps00xmW803G-81" value="&lt;br&gt;&lt;div&gt;Ph&lt;span style=&quot;background-color: transparent; color: light-dark(rgb(0, 0, 0), rgb(255, 255, 255));&quot;&gt;one&lt;/span&gt;&lt;/div&gt;" style="ellipse;whiteSpace=wrap;html=1;align=center;" parent="1" vertex="1">
          <mxGeometry x="-294" y="58" width="100" height="40" as="geometry" />
        </mxCell>
        <mxCell id="V7xc9u7MWps00xmW803G-82" value="" style="endArrow=none;html=1;rounded=0;exitX=1;exitY=0.5;exitDx=0;exitDy=0;" parent="1" source="V7xc9u7MWps00xmW803G-81" edge="1">
          <mxGeometry width="50" height="50" relative="1" as="geometry">
            <mxPoint x="-154" y="162" as="sourcePoint" />
            <mxPoint x="-104" y="112" as="targetPoint" />
          </mxGeometry>
        </mxCell>
        <mxCell id="V7xc9u7MWps00xmW803G-83" value="&lt;br&gt;&lt;div&gt;Role&lt;/div&gt;&lt;div&gt;&lt;br&gt;&lt;/div&gt;" style="ellipse;whiteSpace=wrap;html=1;align=center;" parent="1" vertex="1">
          <mxGeometry x="-280" y="112" width="100" height="40" as="geometry" />
        </mxCell>
        <mxCell id="V7xc9u7MWps00xmW803G-84" value="" style="endArrow=none;html=1;rounded=0;exitX=1;exitY=0.5;exitDx=0;exitDy=0;" parent="1" source="V7xc9u7MWps00xmW803G-83" edge="1">
          <mxGeometry width="50" height="50" relative="1" as="geometry">
            <mxPoint x="-154" y="176" as="sourcePoint" />
            <mxPoint x="-104" y="126" as="targetPoint" />
          </mxGeometry>
        </mxCell>
        <mxCell id="V7xc9u7MWps00xmW803G-86" value="&lt;br&gt;&lt;div&gt;Branch&lt;/div&gt;&lt;div&gt;&lt;br&gt;&lt;/div&gt;" style="rounded=1;arcSize=10;whiteSpace=wrap;html=1;align=center;" parent="1" vertex="1">
          <mxGeometry x="224" y="336" width="100" height="40" as="geometry" />
        </mxCell>
        <mxCell id="V7xc9u7MWps00xmW803G-87" value="" style="endArrow=none;html=1;rounded=0;" parent="1" edge="1">
          <mxGeometry width="50" height="50" relative="1" as="geometry">
            <mxPoint x="322" y="344" as="sourcePoint" />
            <mxPoint x="372" y="294" as="targetPoint" />
          </mxGeometry>
        </mxCell>
        <mxCell id="V7xc9u7MWps00xmW803G-88" value="BrachID" style="ellipse;whiteSpace=wrap;html=1;align=center;fontStyle=4;" parent="1" vertex="1">
          <mxGeometry x="324" y="258" width="100" height="40" as="geometry" />
        </mxCell>
        <mxCell id="R7AWNpN_T3VxpT92xZ2n-1" value="" style="endArrow=none;html=1;rounded=0;" parent="1" edge="1">
          <mxGeometry width="50" height="50" relative="1" as="geometry">
            <mxPoint x="252" y="330" as="sourcePoint" />
            <mxPoint x="266" y="266" as="targetPoint" />
          </mxGeometry>
        </mxCell>
        <mxCell id="R7AWNpN_T3VxpT92xZ2n-2" value="&lt;br&gt;&lt;div&gt;Name&lt;/div&gt;&lt;div&gt;&lt;br&gt;&lt;/div&gt;" style="ellipse;whiteSpace=wrap;html=1;align=center;" parent="1" vertex="1">
          <mxGeometry x="224" y="224" width="100" height="40" as="geometry" />
        </mxCell>
        <mxCell id="R7AWNpN_T3VxpT92xZ2n-3" value="&lt;br&gt;&lt;div&gt;locatiion&lt;/div&gt;&lt;div&gt;&lt;br&gt;&lt;/div&gt;" style="ellipse;whiteSpace=wrap;html=1;align=center;" parent="1" vertex="1">
          <mxGeometry x="266" y="448" width="100" height="40" as="geometry" />
        </mxCell>
        <mxCell id="R7AWNpN_T3VxpT92xZ2n-4" value="" style="endArrow=none;html=1;rounded=0;entryX=0.75;entryY=1;entryDx=0;entryDy=0;" parent="1" source="R7AWNpN_T3VxpT92xZ2n-3" target="V7xc9u7MWps00xmW803G-86" edge="1">
          <mxGeometry width="50" height="50" relative="1" as="geometry">
            <mxPoint x="266" y="428" as="sourcePoint" />
            <mxPoint x="308" y="392" as="targetPoint" />
          </mxGeometry>
        </mxCell>
        <mxCell id="R7AWNpN_T3VxpT92xZ2n-5" value="&lt;br&gt;&lt;div&gt;Phone&lt;/div&gt;&lt;div&gt;&lt;br&gt;&lt;/div&gt;" style="ellipse;whiteSpace=wrap;html=1;align=center;" parent="1" vertex="1">
          <mxGeometry x="140" y="420" width="100" height="40" as="geometry" />
        </mxCell>
        <mxCell id="R7AWNpN_T3VxpT92xZ2n-6" value="" style="endArrow=none;html=1;rounded=0;" parent="1" edge="1">
          <mxGeometry width="50" height="50" relative="1" as="geometry">
            <mxPoint x="210" y="428" as="sourcePoint" />
            <mxPoint x="260" y="378" as="targetPoint" />
          </mxGeometry>
        </mxCell>
        <mxCell id="HJ6egfwGORde2ChGLcRo-3" value="&lt;br&gt;&lt;div&gt;AccountID&lt;/div&gt;&lt;div&gt;___------------------&lt;/div&gt;&lt;div&gt;&lt;br&gt;&lt;/div&gt;" style="ellipse;whiteSpace=wrap;html=1;align=center;" parent="1" vertex="1">
          <mxGeometry x="-812" y="350" width="100" height="40" as="geometry" />
        </mxCell>
        <mxCell id="HJ6egfwGORde2ChGLcRo-4" value="" style="endArrow=none;html=1;rounded=0;" parent="1" edge="1">
          <mxGeometry relative="1" as="geometry">
            <mxPoint x="-644" y="406" as="sourcePoint" />
            <mxPoint x="-644" y="308" as="targetPoint" />
          </mxGeometry>
        </mxCell>
        <mxCell id="HJ6egfwGORde2ChGLcRo-5" value="N" style="resizable=0;html=1;whiteSpace=wrap;align=right;verticalAlign=bottom;" parent="HJ6egfwGORde2ChGLcRo-4" connectable="0" vertex="1">
          <mxGeometry x="1" relative="1" as="geometry" />
        </mxCell>
        <mxCell id="HJ6egfwGORde2ChGLcRo-8" value="Relationship" style="shape=rhombus;perimeter=rhombusPerimeter;whiteSpace=wrap;html=1;align=center;" parent="1" vertex="1">
          <mxGeometry x="-28" y="231" width="120" height="60" as="geometry" />
        </mxCell>
        <mxCell id="HJ6egfwGORde2ChGLcRo-9" value="" style="endArrow=none;html=1;rounded=0;entryX=0.5;entryY=0;entryDx=0;entryDy=0;" parent="1" target="HJ6egfwGORde2ChGLcRo-8" edge="1">
          <mxGeometry relative="1" as="geometry">
            <mxPoint x="-42" y="140" as="sourcePoint" />
            <mxPoint x="28" y="210" as="targetPoint" />
          </mxGeometry>
        </mxCell>
        <mxCell id="HJ6egfwGORde2ChGLcRo-10" value="N" style="resizable=0;html=1;whiteSpace=wrap;align=right;verticalAlign=bottom;" parent="HJ6egfwGORde2ChGLcRo-9" connectable="0" vertex="1">
          <mxGeometry x="1" relative="1" as="geometry" />
        </mxCell>
        <mxCell id="HJ6egfwGORde2ChGLcRo-11" value="" style="endArrow=none;html=1;rounded=0;entryX=0.5;entryY=1;entryDx=0;entryDy=0;" parent="1" target="HJ6egfwGORde2ChGLcRo-8" edge="1">
          <mxGeometry relative="1" as="geometry">
            <mxPoint x="224" y="350" as="sourcePoint" />
            <mxPoint x="384" y="350" as="targetPoint" />
          </mxGeometry>
        </mxCell>
        <mxCell id="HJ6egfwGORde2ChGLcRo-12" value="1" style="resizable=0;html=1;whiteSpace=wrap;align=right;verticalAlign=bottom;" parent="HJ6egfwGORde2ChGLcRo-11" connectable="0" vertex="1">
          <mxGeometry x="1" relative="1" as="geometry" />
        </mxCell>
        <mxCell id="HJ6egfwGORde2ChGLcRo-21" value="Relationship" style="shape=rhombus;perimeter=rhombusPerimeter;whiteSpace=wrap;html=1;align=center;" parent="1" vertex="1">
          <mxGeometry x="-294" y="326" width="120" height="60" as="geometry" />
        </mxCell>
        <mxCell id="HJ6egfwGORde2ChGLcRo-22" value="" style="endArrow=none;html=1;rounded=0;entryX=0;entryY=0.5;entryDx=0;entryDy=0;" parent="1" target="HJ6egfwGORde2ChGLcRo-21" edge="1">
          <mxGeometry relative="1" as="geometry">
            <mxPoint x="-616" y="154" as="sourcePoint" />
            <mxPoint x="-456" y="238" as="targetPoint" />
          </mxGeometry>
        </mxCell>
        <mxCell id="HJ6egfwGORde2ChGLcRo-23" value="N" style="resizable=0;html=1;whiteSpace=wrap;align=right;verticalAlign=bottom;" parent="HJ6egfwGORde2ChGLcRo-22" connectable="0" vertex="1">
          <mxGeometry x="1" relative="1" as="geometry" />
        </mxCell>
        <mxCell id="HJ6egfwGORde2ChGLcRo-26" value="" style="endArrow=none;html=1;rounded=0;exitX=0;exitY=0.75;exitDx=0;exitDy=0;" parent="1" source="V7xc9u7MWps00xmW803G-86" edge="1">
          <mxGeometry relative="1" as="geometry">
            <mxPoint x="56" y="364" as="sourcePoint" />
            <mxPoint x="-168" y="364" as="targetPoint" />
            <Array as="points">
              <mxPoint x="168" y="376" />
            </Array>
          </mxGeometry>
        </mxCell>
        <mxCell id="HJ6egfwGORde2ChGLcRo-27" value="1" style="resizable=0;html=1;whiteSpace=wrap;align=right;verticalAlign=bottom;" parent="HJ6egfwGORde2ChGLcRo-26" connectable="0" vertex="1">
          <mxGeometry x="1" relative="1" as="geometry" />
        </mxCell>
      </root>
    </mxGraphModel>
  </diagram>
</mxfile>
